<svg xmlns="http://www.w3.org/2000/svg" viewBox="0 0 2508.23 1355.64"><defs><style>.cls-1{fill:#ebf3fa;}.cls-2{fill:#82b378;}.cls-3{fill:#a8d29f;}.cls-4{fill:#233862;}.cls-5{fill:#b7d3f3;}.cls-6{fill:#d2e3fc;}.cls-7{fill:#c5dcf8;}.cls-8{fill:#d1e6fa;}.cls-9{fill:#ffb27d;}.cls-10{fill:#932722;}.cls-11{fill:#163560;}.cls-12{fill:#b5453c;}.cls-13{fill:#1c468a;}.cls-14{fill:#ed975d;}.cls-15{fill:#fff;}.cls-16{fill:#96302a;}.cls-17{fill:#97badd;}.cls-18{fill:#fcecdb;}.cls-19{fill:#78acea;}.cls-20{fill:#afcdfb;}.cls-21{fill:#5e92dd;opacity:0.4;}.cls-22{fill:#95c0f4;}.cls-23{fill:#8cbaf1;}.cls-24{fill:#c0d8fb;}.cls-25{fill:#fffbf8;}.cls-26{fill:#699dee;}.cls-27{fill:#f99746;}.cls-28{fill:#ffb176;}.cls-29{fill:#b25918;}.cls-30{fill:#ed7d2b;}.cls-31{fill:#2a4e96;}.cls-32{fill:#ed985f;}.cls-33{fill:#2c3a64;}.cls-34{fill:#ffe4cc;}.cls-35{fill:#f77548;}.cls-36{fill:#efcbab;}.cls-37{fill:#ff7d5a;}.cls-38{fill:#2e3552;}</style></defs><g id="Capa_2" data-name="Capa 2"><g id="Слой_1" data-name="Слой 1"><path class="cls-1" d="M165.25,1346.1s-295.79-320.71-50-667.93c218-308.08,472.28-287,658.81-162,79.44,53.25,308.49,6.57,503.43-306.91C1543.33-218.24,2464.87,41,2296.84,698.76c-81.31,318.29,247.47,329.85,79.94,648Z"/><path class="cls-2" d="M1478.47,1180.35s-56.34-65.73-3.47-107.47c0,0,38.61-23.38,70.09-21.48,0,0-44.61,74.81-30.18,82.25s43.7-86.94,43.7-86.94,87.87-8.53,116.14,5.06c0,0-75.12,61.48-59.3,65.13s97-56.67,97-56.67,81.78,13.92,77.42,63.81-32.54,65.29-44.92,64-84.84-29-86.42-18.83,42,43.31,72.58,44.86c0,0-57.66,63.59-96,45.24s-41.59-47.44-65.48-58.35-44.28-10.89-34.42.24,53.1,21.94,66.76,46.11,25.91,40.46-13.73,34.49-104.09-35-106.92-68.19Z"/><path class="cls-2" d="M1749.65,1125.38s-222.13-8.56-271.18,55c0,0-10.85,32.49-44.23,62.07l-5.21,14.19s38.5-40.59,52.27-43C1481.3,1213.57,1459.76,1134.87,1749.65,1125.38Z"/><path class="cls-2" d="M1434.24,1242.42s-47.68,35.26-51,98.27l8.65.77s15.23-65.14,42.75-90.62S1434.24,1242.42,1434.24,1242.42Z"/><path class="cls-3" d="M898,643.47s86.17-48.26,46-113.75c0,0-32.18-40.22-66.65-50.56,0,0,18.39,97.67,0,100s-12.63-110.3-12.63-110.3-90.78-43.66-126.39-40.22c0,0,56.3,95.37,37.91,93.07s-81.58-98.81-81.58-98.81-93.07-17.24-108,37.92,9.19,82.72,23,86.17,102.26,2.3,100,13.79-62.05,29.87-95.37,19.53c0,0,36.77,90.77,85,86.18s63.19-34.47,93.07-36.77,51.7,5.74,36.77,13.79-65.5,2.63-89.63,23.15-43.66,33.15,1.15,42.34,125.24,3.45,141.33-31Z"/><path class="cls-2" d="M629.17,478S870.46,556.14,898,643.47c0,0-1.15,39.06,23,83.87v17.24S895.74,686,882,677.94C882,677.94,936,602.1,629.17,478Z"/><path class="cls-2" d="M921,727.34s37.21,56.51,16,125.3l-9.57-2.58s9.29-75.76-10.18-113.86S921,727.34,921,727.34Z"/><path class="cls-3" d="M1424.07,1028.48s-118.13-66.15-63-155.93c0,0,44.1-55.13,91.35-69.31,0,0-25.2,133.89,0,137s17.33-151.21,17.33-151.21,124.43-59.86,173.26-55.13c0,0-77.18,130.73-52,127.58s111.83-135.46,111.83-135.46,127.58-23.62,148.06,52-12.6,113.41-31.5,118.13-140.19,3.15-137,18.9,85,41,130.73,26.78c0,0-50.41,124.43-116.56,118.13s-86.63-47.25-127.58-50.4-70.88,7.87-50.4,18.9,89.78,3.61,122.85,31.73,59.86,45.45-1.57,58-171.69,4.72-193.74-42.53Z"/><path class="cls-2" d="M1792.64,801.67s-330.77,107.1-368.57,226.81c0,0,1.58,53.55-31.5,115v23.63s34.65-80.33,53.55-91.36C1446.12,1075.73,1372.09,971.78,1792.64,801.67Z"/><path class="cls-2" d="M1392.57,1143.46s-51,77.46-21.93,171.75l13.12-3.52s-12.73-103.86,14-156.09S1392.57,1143.46,1392.57,1143.46Z"/><path class="cls-4" d="M313.39,704.16S292.8,721.27,315.48,743c0,0-19.46,6.79-25.77,2.18a16.76,16.76,0,0,0,2.48,3.37s-19.92,1.81-28.5-4-8.87-108.2,47.16-99.81c0,0,46.77-6.11,45.36,48.47s16.32,53.61,16.32,53.61-4.8,2.7-7.18,2.83c0,0-3.55-1.14-4.34-3,0,0,.85,3,1.8,3.89,0,0-19,2.86-29-3.84S311.27,715.52,313.39,704.16Z"/><path class="cls-4" d="M310.38,732.05s-16-15.23-22.61-30c-4.73-10.55-27.55-53.3,15.09-57.71,0,0,30.44-1.43,43.58,3.35,10.44,3.79,26.6,13.6,21.13,53l-.72,13Z"/><path class="cls-5" d="M261.7,1035.74c-1.83-44.9-5.76-84-10.47-111.18-7.51-43.41-14.27-68.39-14.34-68.65-1-3.82-15.28-19.27-47-18.79s-28.76,20.73-28.76,20.73h0a6.62,6.62,0,0,0,.23,1.8c.31,1.05,29.46,106.77,28.2,243.27,0,1.92-.23,5.23-.09,7.44,0,0,73.61,1.9,73.62,0C265.62,1098.43,264.37,1065.37,261.7,1035.74Z"/><path class="cls-6" d="M271,1102.25c0,1.9-1,3.43-2.26,3.43h0c-1.23,0-2.2-1.56-2.22-3.43H203.38c0,1.9-1,3.43-2.25,3.43h0c-1.25,0-2.24-1.61-2.22-3.53a952.48,952.48,0,0,0-5.24-107.77c-8.38-80.31-23.89-134-24.11-134.73a6.66,6.66,0,0,1-.22-1.8s-3-20.25,28.75-20.73,46.05,15,47,18.79c.06.2,3.89,14.34,9,39.77,1.69,8.42,3.51,18.08,5.38,28.88,4.7,27.23,8.64,66.28,10.46,111.17C272.58,1065.37,273.52,1090.32,271,1102.25Z"/><path class="cls-7" d="M194.22,1105.68H441.54s-5.76-23.31-149-19.84C191.18,1088.3,194.22,1105.68,194.22,1105.68Z"/><path class="cls-8" d="M174.08,1349.12c28.68-145.16,21.31-234.25,21.27-235.37-.07-2.23,4.05-4.26,6.26-4.33s12.14-.66,13.29,1.25c1.5,2.5,7.28,112.26-35.46,238.45Z"/><path class="cls-8" d="M405,1349.12c-28.68-145.16-21.31-234.25-21.27-235.37.07-2.23-4.05-4.26-6.26-4.33s-12.14-.66-13.29,1.25c-1.5,2.5-7.28,112.26,35.46,238.45Z"/><path class="cls-8" d="M450.77,1349.12c-28.68-145.16-21.3-234.25-21.27-235.37.08-2.23-4-4.26-6.26-4.33s-12.14-.66-13.29,1.25c-1.5,2.5-7.27,112.26,35.47,238.45Z"/><path class="cls-8" d="M220.16,1349.12c28.67-145.16,21.3-234.25,21.26-235.37-.07-2.23,4.05-4.26,6.27-4.33s12.14-.66,13.28,1.25c1.5,2.5,7.28,112.26-35.46,238.45Z"/><rect class="cls-5" x="189.3" y="1099.65" width="257.45" height="13.46" rx="5.07"/><path class="cls-9" d="M572.56,1355.41c-9,0-27.66,2.34-35.84-7.62s-25.88-14.86-28.13-18c-1.22-1.72.4-9.35,2.15-16h0c4.41-6.07-2.7-14.34-2.7-14.34l23.68,1.59s11.28,15,19.59,27c3.15,4.57,12.67,11.44,18.4,13.48,7.4,2.65,14.76,4.28,17.47,6.92C592,1353.06,581.6,1355.42,572.56,1355.41Z"/><path class="cls-10" d="M572.56,1355.41c-9,0-27.66,2.34-35.84-7.62s-25.88-14.86-28.13-18c-1.22-1.72-1.28-8.65,2.15-16h0s14.91,6.1,23.34,17.8,30.84,16.79,35.56,10l.07-.08c7.4,2.65,14.76,4.28,17.47,6.92C592,1353.06,581.6,1355.42,572.56,1355.41Z"/><polygon class="cls-10" points="508.59 1329.75 517.67 1349.13 523.71 1349.79 522.82 1332.53 508.59 1329.75"/><path class="cls-11" d="M331.24,986.41s131.74,40.8,160.08,64.36,48.1,257.29,48.1,257.29-3.38,2-10.31,1.89c-6.44-.14-19.95-5.72-19.95-5.72s-57.9-111-59.55-137.28,2.56-49-8.78-51.08-156.14-2.87-172.7-43.66,6.17-76,6.17-76Z"/><path class="cls-9" d="M542,1355.41c-9,0-27.66,2.34-35.85-7.62s-25.87-14.86-28.13-18c-1.21-1.72.4-9.35,2.15-16h0c4.41-6.07-2.7-14.34-2.7-14.34l23.68,1.59s11.28,15,19.59,27c3.16,4.57,12.67,11.44,18.4,13.48,7.4,2.65,14.77,4.28,17.47,6.92C561.42,1353.06,551,1355.42,542,1355.41Z"/><path class="cls-12" d="M542,1355.41c-9,0-27.66,2.34-35.85-7.62s-25.87-14.86-28.13-18c-1.21-1.72-1.28-8.65,2.15-16h0s14.92,6.1,23.34,17.8,30.84,16.79,35.57,10l.06-.08c7.4,2.65,14.77,4.28,17.47,6.92C561.42,1353.06,551,1355.42,542,1355.41Z"/><polygon class="cls-12" points="478.03 1329.75 487.12 1349.13 493.16 1349.79 492.26 1332.53 478.03 1329.75"/><path class="cls-13" d="M296.75,998.75s135.67,28.46,164,52,48.1,257.29,48.1,257.29-3.38,2-10.31,1.89c-6.45-.14-19.95-5.72-19.95-5.72s-57.9-111-59.56-137.28,2.57-49-8.78-51.08-156.14-2.87-172.7-43.66,6.18-76,6.18-76Z"/><path class="cls-9" d="M347.73,779.88c.17.08-15.79,8.37-27.8,5.08-11.29-3.08-18.67-17.72-18.51-17.75,4.78-1,6.16-7.52,6.06-35.76l2.16.43L346,739.07s-.83,11.44-.85,22.22C345.11,770.34,345.66,778.92,347.73,779.88Z"/><path class="cls-14" d="M346,739.07s-.83,11.44-.85,22.22c-20.34-.58-31.09-19.13-35.5-29.41Z"/><path class="cls-9" d="M352.78,749.28s-48.12.79-48.16-29.19-6.26-50.06,24.46-51.84,36.71,9.66,39.15,19.67S365.3,748.3,352.78,749.28Z"/><path class="cls-15" d="M240.57,909.36c-4.75-19.91,11.4-58.53,28.25-90.51,15.3-29,31.17-52.49,32.6-51.64,40.33,23.94,44,4,44,4h0s36.64,4.86,47,22.72C405.28,816.13,419.19,878,433,889.76c-2.13,6.49-1.22,10,1,18q.72,2.58,1.6,4.91a95.31,95.31,0,0,0,6.93,14.24c-7,4.26-20.57,12.38-30.56,6.54-15.22-8.91-27.1-36-33.79-46.84l-.07-.12c-14.54,82.26,5.22,101-4.78,109.67-10.56,9.16-25.65-4.36-58.85,10-21.78,9.45-52,23.11-72.33,25.48-10.67,1.26-18.63-.6-21.23-7.81C213.41,1002.91,249.62,947.3,240.57,909.36Z"/><path class="cls-15" d="M342.08,731.1s.9,3.81,10.37,3.23c0,0,8-.5,7.72-4.68C360.17,729.65,352.45,726.67,342.08,731.1Z"/><path class="cls-15" d="M214.08,938.59c10.78-15.15,22-23.16,29.41-27.19-1.7-4.38,45.37-62.08,45.37-71s12.56-73.16,12.56-73.16-39.22,2.42-52.8,21.35C231.64,812.25,196.37,903.4,214.08,938.59Z"/><path class="cls-9" d="M243.49,911.4l78.38,20.46-7.36,13.2s-95.38-.67-100.43-6.47S243.49,911.4,243.49,911.4Z"/><path class="cls-11" d="M378.21,886.6c6.69,10.81,18.57,37.93,33.79,46.84,10,5.84,23.54-2.28,30.56-6.54a95.31,95.31,0,0,1-6.93-14.24c-5.6,1.29-12.44,2.92-16.85,4.25C410.2,919.51,378.21,886.6,378.21,886.6Z"/><polygon class="cls-12" points="370.22 875.84 328.26 968.91 427.71 978.3 466.84 883.79 370.22 875.84"/><path class="cls-16" d="M466.84,883.8l46.4-29.44-46.4,101.47L427.71,978.3Z"/><path class="cls-9" d="M321.87,931.86s14.49-6.39,18.16-9.65c2.37-2.11,2.19.9,2,1.72a11.57,11.57,0,0,1-5.27,7.76C330.64,935.69,321.87,931.86,321.87,931.86Z"/><path class="cls-4" d="M347.89,657.48s-15.35,43.06-37.41,50-29.18-1.85-29.18-1.85S297.71,691.1,300,667.11C300,667.11,335.88,639.57,347.89,657.48Z"/><path class="cls-4" d="M344.45,660.84s11.36,8.09,14.48,16.39,5.25,25.62,10.29,24.75c0,0,9.54-27-3.62-41.33C351.64,645.51,344.45,660.84,344.45,660.84Z"/><path class="cls-4" d="M346.54,662s-8.15,41.31-35.67,55.9c0,0,26.86-26.57,27.79-53.6S346.54,662,346.54,662Z"/><path class="cls-4" d="M263.68,744.58c8.58,5.77,28.51,4,28.51,4a16.48,16.48,0,0,1-2.48-3.37c11.76,5.82,34.87-5.51,34.87-5.51-20.45.07-20.46-29.47-14.1-32.15-.9-22.08.83-50.2,1.76-62.86-.9.05-1.4.11-1.4.11C254.82,636.38,255.11,738.8,263.68,744.58Z"/><path class="cls-9" d="M321.87,931.86s25.44-4.86,31.06-3.63,18.18,6.63,19.12,7.79-3.65,1.81-6.95.47c-4.22-1.73-11.23-1-11.23-1s13.52,4.44,16.83,6.32a.51.51,0,0,1,0,.87c-.9.57-3.07.76-6.08,0a105.79,105.79,0,0,0-12.06-1.76L368,946a.42.42,0,0,1,.29.45c-.1.75-1.44,1.42-5.14,1.2-2.84-.16-12.28-2.57-12.28-2.57l8.07,5.39s-2.22,1.27-6.44-.62c-2.89-1.3-11.58-4.46-13.69-4.24s-12.87,3.19-17.56,1.66l-6.7-2.19Z"/><path class="cls-5" d="M292.84,1349.12a4.58,4.58,0,0,0,4.55-3.73L319.69,1219l32.07-181.77,9-50.83-22.85-.65-4,29.51-27.83,207.35-16.5,122.91A3.22,3.22,0,0,0,292.84,1349.12Z"/><path class="cls-17" d="M333.92,1015.27c14.8,6.53,17.84,22,17.84,22l9-50.83-22.85-.65Z"/><path class="cls-5" d="M861,1349.12a4.59,4.59,0,0,1-4.55-3.73L834.18,1219l-32.07-181.77-9-50.83,22.85-.65,4,29.51,27.83,207.35,16.5,122.91A3.22,3.22,0,0,1,861,1349.12Z"/><path class="cls-17" d="M820,1015.27c-14.8,6.53-17.84,22-17.84,22l-9-50.83,22.85-.65Z"/><rect class="cls-5" x="263.67" y="981.06" width="612.86" height="25.3" rx="10.32" transform="translate(1140.19 1987.43) rotate(180)"/><path class="cls-18" d="M1500.84,1032.2H1389.13a5.63,5.63,0,0,1-5.61-5.62h0a5.63,5.63,0,0,1,5.61-5.62h111.71a5.64,5.64,0,0,1,5.62,5.62h0A5.64,5.64,0,0,1,1500.84,1032.2Z"/><path class="cls-18" d="M1500.84,1054.2H1389.13a5.63,5.63,0,0,1-5.61-5.62h0a5.63,5.63,0,0,1,5.61-5.62h111.71a5.64,5.64,0,0,1,5.62,5.62h0A5.64,5.64,0,0,1,1500.84,1054.2Z"/><path class="cls-19" d="M1524.36,104.43V1314a34.59,34.59,0,0,1-33.59,34.48H885.05A34.59,34.59,0,0,1,850.57,1314V104.43A34.58,34.58,0,0,1,885.05,70h604.83A34.57,34.57,0,0,1,1524.36,104.43Z"/><path class="cls-20" d="M1560,104.43V1314a34.59,34.59,0,0,1-34.49,34.47H920.66A34.57,34.57,0,0,1,886.19,1314V104.43A34.57,34.57,0,0,1,920.66,70h604.83A34.58,34.58,0,0,1,1560,104.43Z"/><path class="cls-21" d="M1321.82,118.34H1146.67a6.82,6.82,0,0,1-6.81-6.81h0a6.83,6.83,0,0,1,6.81-6.82h175.15a6.84,6.84,0,0,1,6.82,6.82h0A6.83,6.83,0,0,1,1321.82,118.34Z"/><path class="cls-21" d="M1115.56,118.34h0a6.82,6.82,0,0,1-6.81-6.81h0a6.83,6.83,0,0,1,6.81-6.82h0a6.84,6.84,0,0,1,6.82,6.82h0A6.83,6.83,0,0,1,1115.56,118.34Z"/><path class="cls-22" d="M1275.38,1277.79a44,44,0,1,1-44-44A43.8,43.8,0,0,1,1275.38,1277.79Z"/><rect class="cls-6" x="926.53" y="148.71" width="597.49" height="1063.52"/><path class="cls-23" d="M1262.63,1308.73a43.95,43.95,0,1,1-54.77-68C1212.17,1259.4,1224.94,1290.7,1262.63,1308.73Z"/><path class="cls-24" d="M1524.36,234.84V653.22H955.28c-6.37,0-11.59-5.54-11.59-12.31V247.17c0-6.79,5.22-12.33,11.59-12.33Z"/><path class="cls-24" d="M1362.06,737.35v393.74c0,6.76-4.72,12.31-10.48,12.31h-425V725h425.05C1357.34,725,1362.06,730.56,1362.06,737.35Z"/><path class="cls-25" d="M1785.83,212.38V606.12a12.36,12.36,0,0,1-12.33,12.31H976.13a12.35,12.35,0,0,1-12.31-12.31V212.38A12.36,12.36,0,0,1,976.13,200H1773.5A12.36,12.36,0,0,1,1785.83,212.38Z"/><path class="cls-26" d="M1785.83,212.38V606.11c0,6.78-6.45,12.32-14.33,12.32H1374.82V200H1771.5C1779.38,200,1785.83,205.59,1785.83,212.38Z"/><path class="cls-18" d="M1610,254.5H1460.71a4.48,4.48,0,0,1-4.47-4.47h0a4.48,4.48,0,0,1,4.47-4.47H1610a4.48,4.48,0,0,1,4.47,4.47h0A4.48,4.48,0,0,1,1610,254.5Z"/><path class="cls-18" d="M1610,271.72H1460.71a4.48,4.48,0,0,1-4.47-4.47h0a4.48,4.48,0,0,1,4.47-4.47H1610a4.48,4.48,0,0,1,4.47,4.47h0A4.48,4.48,0,0,1,1610,271.72Z"/><rect class="cls-18" x="1424.57" y="244.6" width="14.37" height="10.86" rx="5.31"/><path class="cls-18" d="M1610,317.9H1460.71a4.49,4.49,0,0,1-4.47-4.47h0a4.48,4.48,0,0,1,4.47-4.47H1610a4.48,4.48,0,0,1,4.47,4.47h0A4.49,4.49,0,0,1,1610,317.9Z"/><path class="cls-18" d="M1610,335.12H1460.71a4.48,4.48,0,0,1-4.47-4.47h0a4.48,4.48,0,0,1,4.47-4.47H1610a4.48,4.48,0,0,1,4.47,4.47h0A4.48,4.48,0,0,1,1610,335.12Z"/><rect class="cls-18" x="1424.57" y="307.99" width="14.37" height="10.86" rx="5.31"/><path class="cls-18" d="M1610,380.59H1460.71a4.48,4.48,0,0,1-4.47-4.47h0a4.48,4.48,0,0,1,4.47-4.47H1610a4.48,4.48,0,0,1,4.47,4.47h0A4.48,4.48,0,0,1,1610,380.59Z"/><path class="cls-18" d="M1610,397.81H1460.71a4.48,4.48,0,0,1-4.47-4.47h0a4.48,4.48,0,0,1,4.47-4.47H1610a4.48,4.48,0,0,1,4.47,4.47h0A4.48,4.48,0,0,1,1610,397.81Z"/><rect class="cls-18" x="1424.57" y="370.69" width="14.37" height="10.86" rx="5.31"/><path class="cls-25" d="M1392.11,696v393.74a12.36,12.36,0,0,1-12.33,12.32H582.43a12.36,12.36,0,0,1-12.34-12.32V696a12.36,12.36,0,0,1,12.34-12.31h797.35A12.36,12.36,0,0,1,1392.11,696Z"/><path class="cls-26" d="M1392.11,696v393.74a12.36,12.36,0,0,1-12.32,12.33H1025.15V683.63h354.64A12.36,12.36,0,0,1,1392.11,696Z"/><path class="cls-27" d="M677.08,751.93a44.22,44.22,0,1,0,44.21,44.22A44.22,44.22,0,0,0,677.08,751.93Zm30.62,45.63H677.08a1.41,1.41,0,0,1-1.41-1.41V763.22a1.41,1.41,0,1,1,2.82,0v31.52H707.7a1.41,1.41,0,0,1,0,2.82Z"/><path class="cls-27" d="M672.66,923.07a39.79,39.79,0,0,0-39.8,39.8c0,22,39.8,70.84,39.8,70.84s39.8-48.86,39.8-70.84A39.79,39.79,0,0,0,672.66,923.07Zm0,58a18.6,18.6,0,1,1,18.61-18.6A18.6,18.6,0,0,1,672.66,981.06Z"/><path class="cls-18" d="M896.16,947.56H751.31a6.7,6.7,0,0,1-6.68-6.68h0a6.7,6.7,0,0,1,6.68-6.67H896.16a6.7,6.7,0,0,1,6.68,6.67h0A6.7,6.7,0,0,1,896.16,947.56Z"/><rect class="cls-18" x="744.63" y="959.78" width="119.68" height="13.36" rx="5.81"/><path class="cls-18" d="M896.16,790H751.31a6.7,6.7,0,0,1-6.68-6.68h0a6.7,6.7,0,0,1,6.68-6.68H896.16a6.7,6.7,0,0,1,6.68,6.68h0A6.7,6.7,0,0,1,896.16,790Z"/><rect class="cls-18" x="744.63" y="802.25" width="119.68" height="13.36" rx="5.81"/><polygon class="cls-28" points="1392.1 872.19 1392.1 804.38 1247.6 744.84 1025.14 790.59 1025.14 882.19 1151.37 933.68 1151.51 933.73 1392.1 872.22 1392.1 872.19"/><polygon class="cls-29" points="1151.15 933.73 1151.15 974.13 1025.14 919.44 1025.14 882.28 1151.15 933.73"/><polygon class="cls-27" points="1392.1 872.19 1151.37 933.68 1151.15 933.73 1151.15 974.13 1392.1 908.35 1392.1 872.22 1392.1 872.19"/><path class="cls-9" d="M1699,353.25c-.82-.5-2-1.15-3.33-1.89h0l-21.58-17.62s-2.74,1.56,0,4.55c.35.38.83.88,1.39,1.46l-8.24-6.44a3.49,3.49,0,0,0-.51,3.77c.67,1.65,8.4,8.25,12.74,11.87-2.62-1.26-6.29-4-11.8-9.56-3.44-3.45-2.32,1.75-1.8,4,.92,4,11.65,17.59,15.42,23.7s5.65,12.14,3,9.5-17-11.46-18.46-9.5,7.16,9.5,11.3,15.54,8.67,16.2,23.37,18.46,17.22-5.17,17.22-5.17S1705.79,357.39,1699,353.25Z"/><path class="cls-9" d="M2153.29,720.51s-3.58,34.83-7.51,41.41-22.2,25.72-27.79,31.77c-.39.41-4-2.79-1.27-7.43,11.09-18.7,8-14.21,4.17-26.51-1.9-6.08-3.08,11.42-6.22,11.83s-2-18.45-2.14-24.18,15.75-8.43,17.62-29.13C2131.35,705,2153.29,720.51,2153.29,720.51Z"/><path class="cls-4" d="M2044.1,363.24s-29,142.11-188.29,188.54c-49.74,14.5-162.73-149.25-162.73-149.25s4-15.1,28.86-11.63c0,0,110,72.84,123.87,80.75,12.29,7,93.12-90.25,130-105.94S2044.1,363.24,2044.1,363.24Z"/><path class="cls-4" d="M2234.32,1256.59s19.76,18,15.91,30.85-21.7,21.36-24.11,37-12,24.21-20.73,24.21H2164s-6.39-11,9-14.35,21.24-21.73,20.28-38.82,1.45-39.87,1.45-39.87l32.78-7.6Z"/><path class="cls-4" d="M1991.82,1303.24s3.55,41-5.13,45.33l-111.06-.23s0-12.82,17.84-15.67,49.18-13.29,54.48-36.55S1991.82,1303.24,1991.82,1303.24Z"/><path class="cls-27" d="M1898.06,723.34s5.86,72,12.74,158.46c9.36,117.5,20.61,261.84,21.72,289.18,1.93,47.48,9.65,123.43,9.65,123.43s18.31,18,55,10.44c0,0,32.66-108.42,42-223.13.14-1.88.29-3.78.43-5.67,8.68-116.78,22.17-362.68,22.17-362.68Z"/><path class="cls-30" d="M1898.06,723.34s5.86,72,12.74,158.46l128.32,199.92c.14-1.88.29-3.78.43-5.67,8.68-116.78,22.17-362.68,22.17-362.68Z"/><path class="cls-27" d="M1924.81,731.88s105.58,260.62,175,383.09,91.12,156.65,91.12,156.65,39.77-15.66,43.39-26.34c0,0-26.55-236.44-73-294.08-26.27-32.57-57.13-130.31-58.58-164.49s-9.4-101.82-9.4-101.82Z"/><path class="cls-9" d="M2063.72,330.26s-71.44,34.47-112.62,21.68a97.13,97.13,0,0,1,27.88-22.3c-1.43-8.27-2.54-15.44-3.17-21.53a198.94,198.94,0,0,1-1.74-22l27.56-21.68,26.14-20.74C2025.71,302,2063.72,330.26,2063.72,330.26Z"/><path class="cls-31" d="M2101.37,698.23c.15,4.38-9.18,9.37-13.31,11.23-30.56,13.42-59.08,22.77-91.39,25.89-38.18,3.91-83.32-4.68-98.85-4.36a6.43,6.43,0,0,1-4.27-1.72c-1.11-.78-1.9-46.79-1.11-104.65,0-2.33,0-4.67.16-7v-.78c.32-22.62,1.11-46.33,2.22-70,2.21-52.09,6.34-102.31,13.3-130.07,8.39-32.76,27.41-54.43,44.68-70.19L1967,334.06c14.26,2.8,29.31,2,44.36-5.31,16.47-7.94,34.21-16.53,37.06-14.34,21.54,15.75,36.12,51.15,43.88,96.39l.12.66c4.35,25.87,6.53,54.81,6.37,85.11,0,11.24-.31,22.77-.95,34.16-3.17,51.58-1.05,97.49,1,129.31.41,6.29.83,12,1.19,17.14C2100.73,686.23,2101.21,693.25,2101.37,698.23Z"/><path class="cls-4" d="M2098.91,660C1980.5,523.32,2054,424,2054,424l38.5-12.5c4.35,25.87,6.53,54.81,6.37,85.11,0,11.24-.31,22.77-.95,34.16C2094.71,582.31,2096.83,628.22,2098.91,660Z"/><path class="cls-32" d="M2028.24,266s-18.06,32.91-52.43,42.11a198.94,198.94,0,0,1-1.74-22l27.56-21.68Z"/><path class="cls-9" d="M1961.5,285.17s68.15,11.15,74.55-30.75,19.5-68.67-23.74-77.56-54.16,5.85-59.75,19.32S1943.94,281.19,1961.5,285.17Z"/><path class="cls-33" d="M2060.82,171.85c.62-.71,2-1.28,5.22-1.46a13,13,0,0,0-5.93-1.67c-.67-4.41-3-12.23-10.62-14.13a9.52,9.52,0,0,1,4.62,6.87c-8.8-9-27.66-15.62-79.89-11.5-68.83,5.44-46.15,49.51-37.24,54.76s31.34-9.15,48-7.83,19.76,25.31,25.39,28.6,3.42-2.53,11-6,8.34,9.18,6.14,17.39,8.27,19,8.27,19l10.58-11.4c10.58-11.39,20.56-59.66,15.75-70C2061.67,173.69,2061.25,172.77,2060.82,171.85Z"/><path class="cls-31" d="M2048.43,314.06s43.12,20.42,63.8,51.8c32.06,48.69,69.23,226.15,69.92,242.58S2155,740.88,2155,740.88s-28.21-1.86-35.49-16.1c0,0,5.64-119.19,2.07-126.86S2004,438,2016.8,405.55,2048.43,314.06,2048.43,314.06Z"/><path class="cls-9" d="M2145.78,761.92l-20.41,34.14a3.39,3.39,0,0,1-2.06-3.47c.39-2.44,6.29-20.92,6.29-20.92Z"/><path class="cls-9" d="M2125.33,762.91s-14.71,16.78-11.45,20.57l10.63-8.22Z"/><path class="cls-2" d="M1204.85,804.48a18.46,18.46,0,0,0-11.86,2.23S1200.83,809.36,1204.85,804.48Z"/><path class="cls-34" d="M1195,782.29c-48,3.45-91.56,6.29-122.11,16.36-28.12,9.28-45.35,21.76-45.35,35.49,0,15.25,18.72,31.57,55.18,38.46,30.65,5.78,78.89,17.64,112.28,13.37,41.89-5.35,79.11-4.62,108.3-12.3l-13.54-4.95-94.58-34.58,152.35,4.21,14.27.39a16.5,16.5,0,0,0,.66-4.6c0-14.69-19.73-27.95-51.43-37.39C1280.91,787.79,1239.91,779.05,1195,782.29Z"/><path class="cls-35" d="M1347.51,838.35l-152.35-4.21,94.58,34.58c-9.38,2.13-19.66,3.94-30.63,5.39-19.46,2.58-42,.82-63.95,4-36.4,5.3-70-6.87-96.94-10-29-3.32-59.41-20.73-56.1-34,3.43-13.84,23.1-29.86,58.34-34.57,26.48-3.54,61.4-11.72,97.16-11.72,29,0,53.41,7.22,76.84,8.65,44.22,2.69,73.74,21.68,73.74,37.64A13.6,13.6,0,0,1,1347.51,838.35Z"/><path class="cls-12" d="M1114.77,829.36c0,1.51-3.2,2.74-7.15,2.74s-7.16-1.23-7.16-2.74,3.2-2.74,7.16-2.74S1114.77,827.85,1114.77,829.36Z"/><path class="cls-12" d="M1158.3,816.19c0,1.52-3.2,2.74-7.15,2.74s-7.16-1.22-7.16-2.74,3.2-2.74,7.16-2.74S1158.3,814.68,1158.3,816.19Z"/><path class="cls-12" d="M1131.43,808.94c0,1.24-2.64,2.25-5.9,2.25s-5.9-1-5.9-2.25,2.64-2.26,5.9-2.26S1131.43,807.69,1131.43,808.94Z"/><path class="cls-12" d="M1184.78,803.34c0,1.38-2.94,2.51-6.57,2.51s-6.57-1.13-6.57-2.51,2.94-2.52,6.57-2.52S1184.78,802,1184.78,803.34Z"/><ellipse class="cls-12" cx="1174.42" cy="829.36" rx="10.37" ry="3.97"/><path class="cls-12" d="M1207.31,814.87c0,1.51-3.21,2.74-7.16,2.74s-7.16-1.23-7.16-2.74,3.2-2.74,7.16-2.74S1207.31,813.35,1207.31,814.87Z"/><path class="cls-12" d="M1240.45,816.24c0,.75-1.6,1.37-3.58,1.37s-3.58-.62-3.58-1.37,1.6-1.37,3.58-1.37S1240.45,815.48,1240.45,816.24Z"/><ellipse class="cls-12" cx="1221.85" cy="804.48" rx="3.58" ry="1.37"/><path class="cls-12" d="M1184.78,848.62c0,.76-1.6,1.37-3.58,1.37s-3.58-.61-3.58-1.37,1.61-1.37,3.58-1.37S1184.78,847.87,1184.78,848.62Z"/><path class="cls-12" d="M1209.29,854.86c0,.75-1.6,1.37-3.57,1.37s-3.58-.62-3.58-1.37,1.6-1.37,3.58-1.37S1209.29,854.1,1209.29,854.86Z"/><ellipse class="cls-12" cx="1146.99" cy="844.12" rx="8.09" ry="3.09"/><path class="cls-2" d="M1108.68,844.89a16.19,16.19,0,0,0-10.46,1.35S1104.93,848.94,1108.68,844.89Z"/><path class="cls-2" d="M1149.48,825.33a21.83,21.83,0,0,0-14.16,1.84S1144.41,830.83,1149.48,825.33Z"/><path class="cls-2" d="M1226.93,814.91a21.89,21.89,0,0,0-13.27,5.29S1223.38,821.49,1226.93,814.91Z"/><path class="cls-2" d="M1261.34,818.86a21.83,21.83,0,0,0-14-2.6S1254.82,822.53,1261.34,818.86Z"/><path class="cls-2" d="M1206.22,830.09a18.48,18.48,0,0,0-10-6.82S1199.93,830.69,1206.22,830.09Z"/><path class="cls-2" d="M1194.05,837.48a18.47,18.47,0,0,0-11.51,3.62S1190.64,842.8,1194.05,837.48Z"/><path class="cls-2" d="M1199.92,860.71a18.48,18.48,0,0,0-11.74-2.79S1194.26,863.53,1199.92,860.71Z"/><path class="cls-2" d="M1209,845.13a18.47,18.47,0,0,0-11.39,4S1205.77,850.56,1209,845.13Z"/><path class="cls-2" d="M1180.38,816.41a18.43,18.43,0,0,0-11.93,1.81S1176.19,821.14,1180.38,816.41Z"/><path class="cls-2" d="M1164.74,809.6a18.52,18.52,0,0,0-11.33-4.17S1158.79,811.73,1164.74,809.6Z"/><path class="cls-36" d="M1118.35,848.31h0c-7,1.79-10.56,5.4-7.84,8h0c2,2,6.57,1.56,11.69.47l2.6,2.51a2.94,2.94,0,0,0,2.34.2l5-1.26c.92-.24,1.39-.72,1-1.06l-2.58-2.5c4.71-1.37,7.63-2.81,5.51-4.85h0C1133.37,847.22,1125.39,846.53,1118.35,848.31Z"/><path class="cls-36" d="M1252,802.36h0c5.74,1.45,8.61,4.39,6.39,6.54h0c-1.67,1.61-5.36,1.27-9.52.38l-2.12,2.05a2.45,2.45,0,0,1-1.91.16l-4.07-1c-.75-.19-1.13-.58-.84-.86l2.1-2c-3.84-1.13-6.22-2.29-4.49-4h0C1239.73,801.46,1246.23,800.9,1252,802.36Z"/><path class="cls-36" d="M1170.11,837.14h0c5.73,1.46,8.61,4.4,6.39,6.55h0c-1.67,1.61-5.36,1.27-9.53.38l-2.11,2a2.46,2.46,0,0,1-1.91.16l-4.07-1c-.75-.19-1.13-.58-.84-.86l2.1-2c-3.84-1.12-6.22-2.29-4.49-4h0C1157.86,836.25,1164.37,835.69,1170.11,837.14Z"/><path class="cls-36" d="M1121.59,814.89h0c-5.74,1.46-8.62,4.4-6.4,6.54h0c1.67,1.62,5.36,1.28,9.53.39l2.12,2a2.4,2.4,0,0,0,1.91.17l4.07-1c.75-.2,1.13-.58.84-.87l-2.11-2c3.85-1.12,6.23-2.29,4.5-4h0C1133.83,814,1127.32,813.44,1121.59,814.89Z"/><path class="cls-34" d="M1371.29,834l-131.5-3.64-17.94-5v4.51l102.63,37.53c31-8.15,51.76-19.9,55.52-33.16v-4.51Z"/><path class="cls-37" d="M1380,829.72c-3.77,13.26-24.55,25-55.53,33.16l-46.52-17-9.68-3.54h0l-46.42-17Z"/><path class="cls-12" d="M1274.46,833.45c0,1.51-3.2,2.74-7.16,2.74s-7.16-1.23-7.16-2.74,3.21-2.74,7.16-2.74S1274.46,831.94,1274.46,833.45Z"/><path class="cls-12" d="M1282,843.4c0,1.1-1.65,2-4.06,2.47l-9.68-3.54c1.08-1,3.63-1.66,6.59-1.66C1278.82,840.67,1282,841.89,1282,843.4Z"/><path class="cls-12" d="M1307.62,844c0,.75-1.6,1.37-3.58,1.37s-3.58-.62-3.58-1.37,1.6-1.37,3.58-1.37S1307.62,843.27,1307.62,844Z"/><ellipse class="cls-12" cx="1323.24" cy="836.19" rx="3.58" ry="1.37"/><path class="cls-12" d="M1290.46,834.13c0,.76-1.6,1.37-3.58,1.37s-3.58-.61-3.58-1.37,1.61-1.37,3.58-1.37S1290.46,833.37,1290.46,834.13Z"/><path class="cls-12" d="M1308.79,831.72c0,1.24-2.64,2.25-5.9,2.25s-5.89-1-5.89-2.25,2.64-2.26,5.89-2.26S1308.79,830.47,1308.79,831.72Z"/><path class="cls-12" d="M1302.89,839.05c0,.84-1.78,1.52-4,1.52s-4-.68-4-1.52,1.78-1.53,4-1.53S1302.89,838.2,1302.89,839.05Z"/><path class="cls-12" d="M1250.54,830.71c0,.56-1.18,1-2.63,1s-2.63-.45-2.63-1,1.18-1,2.63-1S1250.54,830.15,1250.54,830.71Z"/><path class="cls-2" d="M1280.89,834.32a15.13,15.13,0,0,0-9.2,3.67S1278.43,838.89,1280.89,834.32Z"/><path class="cls-2" d="M1340.21,837.77a15.24,15.24,0,0,0-9.39-3.2S1335.36,839.64,1340.21,837.77Z"/><path class="cls-2" d="M1293.42,843.38a15.15,15.15,0,0,0-9.48-2.88S1288.64,845.41,1293.42,843.38Z"/><path class="cls-2" d="M1324.46,846.63a15.2,15.2,0,0,0-9.6,2.49S1321.44,850.85,1324.46,846.63Z"/><path class="cls-2" d="M1245.61,827.63a13.48,13.48,0,0,0-8.67,1.39S1242.59,831.1,1245.61,827.63Z"/><path class="cls-34" d="M1056.92,242.72c-21.25,3.06-40.55,5.57-54.08,14.49-12.46,8.2-20.09,19.24-20.09,31.39,0,13.5,8.29,27.94,24.44,34,13.58,5.12,34.94,15.61,49.73,11.84,18.56-4.74,35-4.09,48-10.89l-6-4.38L1057,288.6l67.48,3.72,6.32.35a27.57,27.57,0,0,0,.3-4.07c0-13-8.74-24.73-22.78-33.08C1095,247.6,1076.82,239.86,1056.92,242.72Z"/><path class="cls-35" d="M1124.48,292.32,1057,288.6l41.9,30.6a86.5,86.5,0,0,1-13.57,4.77c-8.62,2.28-18.6.72-28.33,3.55-16.12,4.7-31-6.07-42.93-8.8-12.86-2.94-26.32-18.34-24.85-30.12,1.52-12.24,10.23-26.42,25.84-30.58,11.73-3.13,27.2-10.37,43-10.37,12.86,0,23.66,6.38,34,7.65,19.58,2.38,32.66,19.18,32.66,33.3A23,23,0,0,1,1124.48,292.32Z"/><path class="cls-12" d="M1021.4,284.37c0,1.34-1.42,2.43-3.17,2.43s-3.17-1.09-3.17-2.43,1.42-2.42,3.17-2.42S1021.4,283,1021.4,284.37Z"/><path class="cls-12" d="M1040.68,272.72c0,1.34-1.42,2.43-3.17,2.43s-3.17-1.09-3.17-2.43,1.42-2.42,3.17-2.42S1040.68,271.38,1040.68,272.72Z"/><ellipse class="cls-12" cx="1026.16" cy="266.3" rx="2.61" ry="2"/><path class="cls-12" d="M1052.41,261.35c0,1.23-1.31,2.22-2.91,2.22s-2.92-1-2.92-2.22,1.31-2.23,2.92-2.23S1052.41,260.12,1052.41,261.35Z"/><path class="cls-12" d="M1052.41,284.37c0,1.94-2.06,3.51-4.59,3.51s-4.6-1.57-4.6-3.51,2.06-3.51,4.6-3.51S1052.41,282.44,1052.41,284.37Z"/><path class="cls-12" d="M1062.38,271.55c0,1.34-1.42,2.42-3.17,2.42s-3.17-1.08-3.17-2.42,1.42-2.42,3.17-2.42S1062.38,270.21,1062.38,271.55Z"/><path class="cls-12" d="M1077.06,272.76a1.64,1.64,0,1,1-1.58-1.21A1.43,1.43,0,0,1,1077.06,272.76Z"/><path class="cls-12" d="M1070.41,262.36a1.64,1.64,0,1,1-1.59-1.21A1.44,1.44,0,0,1,1070.41,262.36Z"/><path class="cls-12" d="M1052.41,301.42a1.64,1.64,0,1,1-1.59-1.21A1.44,1.44,0,0,1,1052.41,301.42Z"/><path class="cls-12" d="M1063.26,306.93a1.64,1.64,0,1,1-1.58-1.21A1.44,1.44,0,0,1,1063.26,306.93Z"/><path class="cls-12" d="M1039.25,297.43c0,1.51-1.6,2.74-3.58,2.74s-3.58-1.23-3.58-2.74,1.6-2.74,3.58-2.74S1039.25,295.92,1039.25,297.43Z"/><path class="cls-2" d="M1018.7,298.11a4,4,0,0,0-4.63,1.2S1017,301.7,1018.7,298.11Z"/><path class="cls-2" d="M1036.77,280.81s-3.18-1.61-6.27,1.63C1030.5,282.44,1034.52,285.67,1036.77,280.81Z"/><path class="cls-2" d="M1071.08,271.59s-3.29,0-5.88,4.68C1065.2,276.27,1069.5,277.41,1071.08,271.59Z"/><path class="cls-2" d="M1086.32,275.08s-2.79-3.48-6.22-2.3C1080.1,272.78,1083.43,278.33,1086.32,275.08Z"/><path class="cls-2" d="M1061.9,285s-1.55-4.59-4.41-6C1057.49,279,1059.12,285.55,1061.9,285Z"/><path class="cls-2" d="M1056.51,291.56s-2.77-.4-5.1,3.2C1051.41,294.76,1055,296.27,1056.51,291.56Z"/><path class="cls-2" d="M1059.11,312.11s-2.27-3.17-5.2-2.47C1053.91,309.64,1056.61,314.61,1059.11,312.11Z"/><path class="cls-2" d="M1063.14,298.33s-2.78-.22-5.05,3.53C1058.09,301.86,1061.7,303.13,1063.14,298.33Z"/><path class="cls-2" d="M1050.46,272.91s-2.71-1.24-5.29,1.6C1045.17,274.51,1048.6,277.1,1050.46,272.91Z"/><path class="cls-2" d="M1043.53,266.89s-2.07-3.69-5-3.69C1038.51,263.2,1040.89,268.77,1043.53,266.89Z"/><path class="cls-36" d="M1023,301.14h0c-3.11,1.58-4.68,4.78-3.47,7.1h0c.91,1.75,2.91,1.38,5.18.42l1.15,2.22a.75.75,0,0,0,1,.18l2.21-1.12a.75.75,0,0,0,.46-.94l-1.14-2.2c2.09-1.22,3.38-2.49,2.44-4.3h0C1029.64,300.18,1026.1,299.57,1023,301.14Z"/><path class="cls-36" d="M1082.17,260.48h0c2.54,1.29,3.81,3.89,2.83,5.79h0c-.74,1.43-2.38,1.12-4.22.34l-.94,1.81a.64.64,0,0,1-.85.15l-1.8-.92a.61.61,0,0,1-.37-.76l.93-1.8c-1.7-1-2.75-2-2-3.5h0C1076.74,259.69,1079.63,259.19,1082.17,260.48Z"/><path class="cls-36" d="M1045.91,291.26h0c2.54,1.29,3.81,3.89,2.83,5.79h0c-.74,1.43-2.37,1.12-4.22.34l-.94,1.81a.62.62,0,0,1-.84.14l-1.8-.91a.61.61,0,0,1-.38-.76l.93-1.8c-1.7-1-2.75-2-2-3.5h0C1040.48,290.47,1043.37,290,1045.91,291.26Z"/><path class="cls-36" d="M1024.42,271.57h0c-2.54,1.29-3.82,3.89-2.84,5.79h0c.74,1.43,2.38,1.13,4.23.34l.93,1.81a.63.63,0,0,0,.85.15l1.8-.92a.61.61,0,0,0,.37-.76l-.93-1.8c1.7-1,2.76-2,2-3.5h0C1029.84,270.78,1027,270.29,1024.42,271.57Z"/><path class="cls-34" d="M1135,288.47l-58.25-3.22-8-4.42v4l45.46,33.2c13.72-7.2,22.93-17.61,24.59-29.34v-4Z"/><path class="cls-37" d="M1138.88,284.69c-1.67,11.73-10.88,22.14-24.6,29.35L1093.68,299l-4.29-3.13h0l-20.57-15Z"/><path class="cls-12" d="M1092.13,288c0,1.34-1.42,2.43-3.17,2.43s-3.17-1.09-3.17-2.43,1.42-2.42,3.17-2.42S1092.13,286.65,1092.13,288Z"/><path class="cls-12" d="M1095.48,296.8a2.46,2.46,0,0,1-1.8,2.18l-4.29-3.13a3.3,3.3,0,0,1,2.92-1.47C1094.06,294.38,1095.48,295.46,1095.48,296.8Z"/><path class="cls-12" d="M1106.81,297.35a1.64,1.64,0,1,1-1.58-1.21A1.43,1.43,0,0,1,1106.81,297.35Z"/><path class="cls-12" d="M1115.32,290.42a1.64,1.64,0,1,1-1.59-1.22A1.44,1.44,0,0,1,1115.32,290.42Z"/><path class="cls-12" d="M1099.21,288.59a1.64,1.64,0,1,1-1.58-1.21A1.43,1.43,0,0,1,1099.21,288.59Z"/><path class="cls-12" d="M1107.33,286.46c0,1.1-1.17,2-2.61,2s-2.61-.89-2.61-2,1.17-2,2.61-2S1107.33,285.36,1107.33,286.46Z"/><path class="cls-12" d="M1104.72,292.94a1.83,1.83,0,1,1-1.77-1.35A1.6,1.6,0,0,1,1104.72,292.94Z"/><path class="cls-12" d="M1081.53,285.57a1.21,1.21,0,1,1-1.16-.89A1.05,1.05,0,0,1,1081.53,285.57Z"/><path class="cls-2" d="M1095,288.76s-2.28,0-4.08,3.25C1090.9,292,1093.88,292.8,1095,288.76Z"/><path class="cls-2" d="M1121.25,291.82s-1.74-3-4.16-2.83C1117.09,289,1119.1,293.47,1121.25,291.82Z"/><path class="cls-2" d="M1100.53,296.78s-1.79-2.83-4.2-2.55C1096.33,294.23,1098.41,298.57,1100.53,296.78Z"/><path class="cls-2" d="M1114.27,299.66s-2.26-.56-4.25,2.2C1110,301.86,1112.94,303.39,1114.27,299.66Z"/><path class="cls-2" d="M1079.35,282.85a3.39,3.39,0,0,0-3.84,1.23A2.41,2.41,0,0,0,1079.35,282.85Z"/><path class="cls-34" d="M1243.41,364.05c-21.26,3.06-40.56,5.57-54.09,14.48-12.46,8.21-20.09,19.25-20.09,31.4,0,13.49,8.29,27.93,24.44,34,13.58,5.11,34.94,15.61,49.74,11.83,18.55-4.73,35-4.09,48-10.88l-6-4.38-41.9-30.6,67.48,3.72,6.32.35a27.57,27.57,0,0,0,.3-4.07c0-13-8.74-24.73-22.78-33.08C1281.47,368.92,1263.3,361.19,1243.41,364.05Z"/><path class="cls-35" d="M1311,413.65l-67.48-3.72,41.9,30.6a87.53,87.53,0,0,1-13.57,4.77c-8.62,2.28-18.6.72-28.33,3.55-16.12,4.69-31-6.08-42.93-8.8-12.86-2.94-26.32-18.34-24.85-30.12,1.52-12.24,10.23-26.42,25.84-30.59,11.73-3.13,27.2-10.37,43-10.37,12.86,0,23.66,6.39,34,7.65,19.58,2.38,32.66,19.19,32.66,33.31A23.15,23.15,0,0,1,1311,413.65Z"/><path class="cls-12" d="M1207.88,405.7c0,1.34-1.42,2.43-3.17,2.43s-3.17-1.09-3.17-2.43,1.42-2.42,3.17-2.42S1207.88,404.36,1207.88,405.7Z"/><path class="cls-12" d="M1227.16,394.05c0,1.34-1.42,2.42-3.17,2.42s-3.17-1.08-3.17-2.42,1.42-2.43,3.17-2.43S1227.16,392.71,1227.16,394.05Z"/><path class="cls-12" d="M1215.26,387.63c0,1.1-1.17,2-2.62,2s-2.61-.9-2.61-2,1.17-2,2.61-2S1215.26,386.53,1215.26,387.63Z"/><path class="cls-12" d="M1238.89,382.67c0,1.23-1.31,2.23-2.91,2.23s-2.91-1-2.91-2.23,1.3-2.22,2.91-2.22S1238.89,381.44,1238.89,382.67Z"/><path class="cls-12" d="M1238.89,405.7c0,1.94-2.06,3.51-4.59,3.51s-4.6-1.57-4.6-3.51,2.06-3.51,4.6-3.51S1238.89,403.76,1238.89,405.7Z"/><path class="cls-12" d="M1248.86,392.88c0,1.33-1.42,2.42-3.17,2.42s-3.17-1.09-3.17-2.42,1.42-2.43,3.17-2.43S1248.86,391.54,1248.86,392.88Z"/><path class="cls-12" d="M1263.54,394.09a1.64,1.64,0,1,1-1.58-1.21A1.43,1.43,0,0,1,1263.54,394.09Z"/><path class="cls-12" d="M1256.89,383.69a1.64,1.64,0,1,1-1.59-1.21A1.44,1.44,0,0,1,1256.89,383.69Z"/><path class="cls-12" d="M1238.89,422.74a1.64,1.64,0,1,1-1.59-1.21A1.44,1.44,0,0,1,1238.89,422.74Z"/><path class="cls-12" d="M1249.74,428.26a1.64,1.64,0,1,1-1.58-1.21A1.43,1.43,0,0,1,1249.74,428.26Z"/><path class="cls-12" d="M1225.73,418.76c0,1.51-1.6,2.73-3.58,2.73s-3.58-1.22-3.58-2.73,1.6-2.74,3.58-2.74S1225.73,417.24,1225.73,418.76Z"/><path class="cls-2" d="M1205.18,419.44a4,4,0,0,0-4.63,1.2S1203.52,423,1205.18,419.44Z"/><path class="cls-2" d="M1223.25,402.13s-3.18-1.6-6.27,1.63C1217,403.76,1221,407,1223.25,402.13Z"/><path class="cls-2" d="M1257.56,392.91s-3.29,0-5.88,4.69C1251.68,397.6,1256,398.74,1257.56,392.91Z"/><path class="cls-2" d="M1272.8,396.41s-2.79-3.48-6.22-2.3C1266.58,394.11,1269.91,399.66,1272.8,396.41Z"/><path class="cls-2" d="M1248.38,406.35s-1.55-4.6-4.4-6C1244,400.31,1245.6,406.88,1248.38,406.35Z"/><path class="cls-2" d="M1243,412.88s-2.77-.39-5.1,3.21C1237.89,416.09,1241.48,417.59,1243,412.88Z"/><path class="cls-2" d="M1245.59,433.44s-2.27-3.18-5.2-2.47C1240.39,431,1243.09,435.93,1245.59,433.44Z"/><path class="cls-2" d="M1249.62,419.65s-2.77-.21-5,3.54C1244.57,423.19,1248.19,424.46,1249.62,419.65Z"/><path class="cls-2" d="M1236.94,394.24s-2.71-1.24-5.29,1.6C1231.65,395.84,1235.08,398.43,1236.94,394.24Z"/><path class="cls-2" d="M1230,388.22s-2.07-3.69-5-3.69C1225,384.53,1227.37,390.1,1230,388.22Z"/><path class="cls-36" d="M1209.46,422.47h0c-3.11,1.58-4.68,4.77-3.47,7.1h0c.91,1.75,2.91,1.38,5.18.42l1.15,2.22a.78.78,0,0,0,1,.18l2.2-1.12a.75.75,0,0,0,.46-.94l-1.14-2.2c2.09-1.22,3.38-2.49,2.44-4.3h0C1216.12,421.5,1212.58,420.89,1209.46,422.47Z"/><path class="cls-36" d="M1268.65,381.81h0c2.54,1.29,3.81,3.89,2.83,5.79h0c-.74,1.42-2.38,1.12-4.22.33l-.94,1.82a.63.63,0,0,1-.85.14l-1.8-.91a.61.61,0,0,1-.37-.76l.93-1.8c-1.7-1-2.75-2-2-3.51h0C1263.22,381,1266.11,380.52,1268.65,381.81Z"/><path class="cls-36" d="M1232.39,412.59h0c2.54,1.29,3.81,3.89,2.83,5.79h0c-.74,1.42-2.37,1.12-4.22.33l-.94,1.82a.62.62,0,0,1-.84.14l-1.8-.91a.61.61,0,0,1-.38-.76l.93-1.8c-1.7-1-2.75-2-2-3.51h0C1227,411.8,1229.85,411.3,1232.39,412.59Z"/><path class="cls-36" d="M1210.9,392.9h0c-2.54,1.29-3.82,3.89-2.84,5.79h0c.74,1.42,2.38,1.12,4.23.34l.93,1.81a.63.63,0,0,0,.85.14l1.8-.91a.6.6,0,0,0,.37-.76l-.93-1.8c1.7-1,2.76-2,2-3.5h0C1216.32,392.11,1213.44,391.61,1210.9,392.9Z"/><path class="cls-34" d="M1321.5,409.79l-58.25-3.21-8-4.43v4l45.46,33.21c13.72-7.21,22.93-17.61,24.6-29.34v-4Z"/><path class="cls-37" d="M1325.36,406c-1.67,11.73-10.88,22.14-24.6,29.34l-20.6-15.05-4.29-3.13h0l-20.57-15Z"/><path class="cls-12" d="M1278.61,409.32c0,1.34-1.42,2.42-3.17,2.42s-3.17-1.08-3.17-2.42,1.42-2.43,3.17-2.43S1278.61,408,1278.61,409.32Z"/><path class="cls-12" d="M1282,418.12a2.47,2.47,0,0,1-1.8,2.19l-4.29-3.13a3.3,3.3,0,0,1,2.92-1.48C1280.54,415.7,1282,416.79,1282,418.12Z"/><path class="cls-12" d="M1293.29,418.68a1.64,1.64,0,1,1-1.58-1.21A1.43,1.43,0,0,1,1293.29,418.68Z"/><path class="cls-12" d="M1301.8,411.74a1.64,1.64,0,1,1-1.59-1.21A1.44,1.44,0,0,1,1301.8,411.74Z"/><path class="cls-12" d="M1285.69,409.92a1.64,1.64,0,1,1-1.58-1.21A1.43,1.43,0,0,1,1285.69,409.92Z"/><path class="cls-12" d="M1293.81,407.78c0,1.11-1.17,2-2.61,2s-2.61-.89-2.61-2,1.17-2,2.61-2S1293.81,406.68,1293.81,407.78Z"/><path class="cls-12" d="M1291.2,414.27a1.83,1.83,0,1,1-1.76-1.35A1.59,1.59,0,0,1,1291.2,414.27Z"/><path class="cls-12" d="M1268,406.89a1,1,0,0,1-1.16.89c-.65,0-1.17-.39-1.17-.89a1.21,1.21,0,0,1,2.33,0Z"/><path class="cls-2" d="M1281.46,410.09s-2.28,0-4.08,3.25C1277.38,413.34,1280.36,414.13,1281.46,410.09Z"/><path class="cls-2" d="M1307.73,413.14s-1.74-2.95-4.16-2.83C1303.57,410.31,1305.58,414.79,1307.73,413.14Z"/><path class="cls-2" d="M1287,418.11s-1.79-2.84-4.2-2.56C1282.81,415.55,1284.89,419.9,1287,418.11Z"/><path class="cls-2" d="M1300.75,421s-2.26-.56-4.25,2.2C1296.5,423.18,1299.42,424.72,1300.75,421Z"/><path class="cls-2" d="M1265.83,404.17a3.41,3.41,0,0,0-3.84,1.23A2.41,2.41,0,0,0,1265.83,404.17Z"/><path class="cls-34" d="M1056.92,491.8c-21.25,3.06-40.55,5.57-54.08,14.49-12.46,8.2-20.09,19.25-20.09,31.39,0,13.5,8.29,27.94,24.44,34,13.58,5.12,34.94,15.61,49.73,11.84,18.56-4.74,35-4.09,48-10.89l-6-4.38-41.9-30.6,67.48,3.73,6.32.34a27.57,27.57,0,0,0,.3-4.07c0-13-8.74-24.73-22.78-33.08C1095,496.68,1076.82,488.94,1056.92,491.8Z"/><path class="cls-35" d="M1124.48,541.41,1057,537.68l41.9,30.6a86.5,86.5,0,0,1-13.57,4.77c-8.62,2.28-18.6.72-28.33,3.55-16.12,4.7-31-6.07-42.93-8.8-12.86-2.93-26.32-18.34-24.85-30.12,1.52-12.24,10.23-26.42,25.84-30.58,11.73-3.13,27.2-10.37,43-10.37,12.86,0,23.66,6.38,34,7.65,19.58,2.38,32.66,19.19,32.66,33.3A23.18,23.18,0,0,1,1124.48,541.41Z"/><path class="cls-12" d="M1021.4,533.46c0,1.33-1.42,2.42-3.17,2.42s-3.17-1.09-3.17-2.42,1.42-2.43,3.17-2.43S1021.4,532.12,1021.4,533.46Z"/><path class="cls-12" d="M1040.68,521.8c0,1.34-1.42,2.43-3.17,2.43s-3.17-1.09-3.17-2.43,1.42-2.42,3.17-2.42S1040.68,520.46,1040.68,521.8Z"/><path class="cls-12" d="M1028.78,515.38c0,1.11-1.17,2-2.62,2s-2.61-.89-2.61-2,1.17-2,2.61-2S1028.78,514.28,1028.78,515.38Z"/><path class="cls-12" d="M1052.41,510.43c0,1.23-1.31,2.22-2.91,2.22s-2.92-1-2.92-2.22,1.31-2.23,2.92-2.23S1052.41,509.2,1052.41,510.43Z"/><path class="cls-12" d="M1052.41,533.46c0,1.93-2.06,3.51-4.59,3.51s-4.6-1.58-4.6-3.51,2.06-3.52,4.6-3.52S1052.41,531.52,1052.41,533.46Z"/><path class="cls-12" d="M1062.38,520.63c0,1.34-1.42,2.42-3.17,2.42S1056,522,1056,520.63s1.42-2.42,3.17-2.42S1062.38,519.29,1062.38,520.63Z"/><path class="cls-12" d="M1077.06,521.84a1.64,1.64,0,1,1-1.58-1.21A1.43,1.43,0,0,1,1077.06,521.84Z"/><path class="cls-12" d="M1070.41,511.44a1.64,1.64,0,1,1-1.59-1.21A1.44,1.44,0,0,1,1070.41,511.44Z"/><path class="cls-12" d="M1052.41,550.5a1.64,1.64,0,1,1-1.59-1.21A1.44,1.44,0,0,1,1052.41,550.5Z"/><path class="cls-12" d="M1063.26,556a1.64,1.64,0,1,1-1.58-1.21A1.44,1.44,0,0,1,1063.26,556Z"/><path class="cls-12" d="M1039.25,546.51c0,1.51-1.6,2.74-3.58,2.74s-3.58-1.23-3.58-2.74,1.6-2.74,3.58-2.74S1039.25,545,1039.25,546.51Z"/><path class="cls-2" d="M1018.7,547.19a4,4,0,0,0-4.63,1.2S1017,550.78,1018.7,547.19Z"/><path class="cls-2" d="M1036.77,529.89s-3.18-1.61-6.27,1.63C1030.5,531.52,1034.52,534.75,1036.77,529.89Z"/><path class="cls-2" d="M1071.08,520.67s-3.29,0-5.88,4.68C1065.2,525.35,1069.5,526.49,1071.08,520.67Z"/><path class="cls-2" d="M1086.32,524.17s-2.79-3.49-6.22-2.31C1080.1,521.86,1083.43,527.41,1086.32,524.17Z"/><path class="cls-2" d="M1061.9,534.1s-1.55-4.59-4.41-6C1057.49,528.06,1059.12,534.63,1061.9,534.1Z"/><path class="cls-2" d="M1056.51,540.64s-2.77-.4-5.1,3.21C1051.41,543.85,1055,545.35,1056.51,540.64Z"/><path class="cls-2" d="M1059.11,561.19s-2.27-3.17-5.2-2.47C1053.91,558.72,1056.61,563.69,1059.11,561.19Z"/><path class="cls-2" d="M1063.14,547.41s-2.78-.22-5.05,3.53C1058.09,550.94,1061.7,552.21,1063.14,547.41Z"/><path class="cls-2" d="M1050.46,522s-2.71-1.24-5.29,1.6C1045.17,523.59,1048.6,526.18,1050.46,522Z"/><path class="cls-2" d="M1043.53,516s-2.07-3.69-5-3.68C1038.51,512.29,1040.89,517.86,1043.53,516Z"/><path class="cls-36" d="M1023,550.23h0c-3.11,1.57-4.68,4.77-3.47,7.1h0c.91,1.75,2.91,1.38,5.18.41l1.15,2.22a.75.75,0,0,0,1,.18l2.21-1.12a.74.74,0,0,0,.46-.93l-1.14-2.21c2.09-1.22,3.38-2.49,2.44-4.3h0C1029.64,549.26,1026.1,548.65,1023,550.23Z"/><path class="cls-36" d="M1082.17,509.56h0c2.54,1.29,3.81,3.89,2.83,5.79h0c-.74,1.43-2.38,1.13-4.22.34l-.94,1.81a.63.63,0,0,1-.85.15l-1.8-.92a.61.61,0,0,1-.37-.76l.93-1.8c-1.7-1-2.75-2-2-3.5h0C1076.74,508.77,1079.63,508.28,1082.17,509.56Z"/><path class="cls-36" d="M1045.91,540.34h0c2.54,1.29,3.81,3.89,2.83,5.79h0c-.74,1.43-2.37,1.12-4.22.34l-.94,1.81a.62.62,0,0,1-.84.15l-1.8-.92a.61.61,0,0,1-.38-.76l.93-1.8c-1.7-1-2.75-2-2-3.5h0C1040.48,539.55,1043.37,539.06,1045.91,540.34Z"/><path class="cls-36" d="M1024.42,520.65h0c-2.54,1.29-3.82,3.9-2.84,5.79h0c.74,1.43,2.38,1.13,4.23.34l.93,1.81a.63.63,0,0,0,.85.15l1.8-.92a.61.61,0,0,0,.37-.76l-.93-1.8c1.7-1,2.76-2,2-3.5h0C1029.84,519.86,1027,519.37,1024.42,520.65Z"/><path class="cls-34" d="M1135,537.55l-58.25-3.21-8-4.43v4l45.46,33.2c13.72-7.2,22.93-17.61,24.59-29.34v-4Z"/><path class="cls-37" d="M1138.88,533.77c-1.67,11.73-10.88,22.14-24.6,29.35l-20.6-15-4.29-3.14h0l-20.57-15Z"/><path class="cls-12" d="M1092.13,537.07c0,1.34-1.42,2.43-3.17,2.43s-3.17-1.09-3.17-2.43,1.42-2.42,3.17-2.42S1092.13,535.73,1092.13,537.07Z"/><path class="cls-12" d="M1095.48,545.88a2.47,2.47,0,0,1-1.8,2.19l-4.29-3.14a3.3,3.3,0,0,1,2.92-1.47C1094.06,543.46,1095.48,544.54,1095.48,545.88Z"/><path class="cls-12" d="M1106.81,546.43a1.64,1.64,0,1,1-1.58-1.21A1.44,1.44,0,0,1,1106.81,546.43Z"/><path class="cls-12" d="M1115.32,539.5a1.64,1.64,0,1,1-1.59-1.21A1.44,1.44,0,0,1,1115.32,539.5Z"/><path class="cls-12" d="M1099.21,537.68a1.64,1.64,0,0,1-3.17,0,1.64,1.64,0,0,1,3.17,0Z"/><path class="cls-12" d="M1107.33,535.54c0,1.1-1.17,2-2.61,2s-2.61-.9-2.61-2,1.17-2,2.61-2S1107.33,534.44,1107.33,535.54Z"/><path class="cls-12" d="M1104.72,542a1.83,1.83,0,1,1-1.77-1.35A1.61,1.61,0,0,1,1104.72,542Z"/><path class="cls-12" d="M1081.53,534.65a1.21,1.21,0,1,1-1.16-.89A1.05,1.05,0,0,1,1081.53,534.65Z"/><path class="cls-2" d="M1095,537.84s-2.28,0-4.08,3.25C1090.9,541.09,1093.88,541.88,1095,537.84Z"/><path class="cls-2" d="M1121.25,540.9s-1.74-2.95-4.16-2.83C1117.09,538.07,1119.1,542.55,1121.25,540.9Z"/><path class="cls-2" d="M1100.53,545.86s-1.79-2.83-4.2-2.55C1096.33,543.31,1098.41,547.65,1100.53,545.86Z"/><path class="cls-2" d="M1114.27,548.74s-2.26-.56-4.25,2.2C1110,550.94,1112.94,552.47,1114.27,548.74Z"/><path class="cls-2" d="M1079.35,531.93a3.41,3.41,0,0,0-3.84,1.23A2.41,2.41,0,0,0,1079.35,531.93Z"/><path class="cls-34" d="M1369.63,829.43s-9.25,4.43-11.82,10-13,3.64-17.6,7.17-9.4,14.12-22.08,14v2.32l5.11,2s34.47-9.6,39.2-13.34,16-13.46,16-13.46l1.59-8.34Z"/><path class="cls-18" d="M1169.82,1061.94H1069.45a4.11,4.11,0,0,1-4.1-4.1h0a4.1,4.1,0,0,1,4.1-4.09h100.37a4.11,4.11,0,0,1,4.1,4.09h0A4.11,4.11,0,0,1,1169.82,1061.94Z"/><path class="cls-18" d="M1169.82,1042.75H1069.45a4.11,4.11,0,0,1-4.1-4.1h0a4.11,4.11,0,0,1,4.1-4.1h100.37a4.12,4.12,0,0,1,4.1,4.1h0A4.12,4.12,0,0,1,1169.82,1042.75Z"/><path class="cls-36" d="M1114.31,393.08H997.77a4.48,4.48,0,0,1-4.47-4.47h0a4.48,4.48,0,0,1,4.47-4.48h116.54a4.49,4.49,0,0,1,4.48,4.48h0A4.49,4.49,0,0,1,1114.31,393.08Z"/><path class="cls-36" d="M1114.31,411.37H997.77a4.48,4.48,0,0,1-4.47-4.48h0a4.48,4.48,0,0,1,4.47-4.47h116.54a4.49,4.49,0,0,1,4.48,4.47h0A4.49,4.49,0,0,1,1114.31,411.37Z"/><path class="cls-36" d="M1114.31,429.66H997.77a4.49,4.49,0,0,1-4.47-4.48h0a4.48,4.48,0,0,1,4.47-4.47h116.54a4.49,4.49,0,0,1,4.48,4.47h0A4.5,4.5,0,0,1,1114.31,429.66Z"/><path class="cls-36" d="M1313.57,262.55H1197a4.49,4.49,0,0,1-4.48-4.48h0a4.48,4.48,0,0,1,4.48-4.47h116.53a4.49,4.49,0,0,1,4.48,4.47h0A4.5,4.5,0,0,1,1313.57,262.55Z"/><path class="cls-36" d="M1313.57,280.84H1197a4.49,4.49,0,0,1-4.48-4.48h0a4.49,4.49,0,0,1,4.48-4.48h116.53a4.5,4.5,0,0,1,4.48,4.48h0A4.5,4.5,0,0,1,1313.57,280.84Z"/><path class="cls-36" d="M1313.57,299.12H1197a4.48,4.48,0,0,1-4.48-4.47h0a4.49,4.49,0,0,1,4.48-4.48h116.53a4.5,4.5,0,0,1,4.48,4.48h0A4.49,4.49,0,0,1,1313.57,299.12Z"/><path class="cls-36" d="M1313.57,522.07H1197a4.49,4.49,0,0,1-4.48-4.48h0a4.48,4.48,0,0,1,4.48-4.47h116.53a4.49,4.49,0,0,1,4.48,4.47h0A4.5,4.5,0,0,1,1313.57,522.07Z"/><path class="cls-36" d="M1313.57,540.36H1197a4.49,4.49,0,0,1-4.48-4.48h0a4.49,4.49,0,0,1,4.48-4.48h116.53a4.5,4.5,0,0,1,4.48,4.48h0A4.5,4.5,0,0,1,1313.57,540.36Z"/><path class="cls-36" d="M1313.57,558.64H1197a4.48,4.48,0,0,1-4.48-4.47h0a4.49,4.49,0,0,1,4.48-4.48h116.53a4.5,4.5,0,0,1,4.48,4.48h0A4.49,4.49,0,0,1,1313.57,558.64Z"/><path class="cls-27" d="M1632.3,535.88H1520.7a33.48,33.48,0,0,1-33.38-33.38h0a33.48,33.48,0,0,1,33.38-33.38h111.6a33.48,33.48,0,0,1,33.38,33.38h0A33.48,33.48,0,0,1,1632.3,535.88Z"/><path class="cls-15" d="M1555.16,492.9s21.19,29.65,21.13,28.54,21.55-42.12,21.55-42.12l-24.95,24.18Z"/><polygon class="cls-25" points="1224.22 901.08 1152.6 918.41 1130.29 908.86 1199.74 892.83 1224.22 901.08"/><rect class="cls-38" y="1347.93" width="2508.23" height="7.71" rx="3.06"/></g></g></svg>